<svg xmlns="http://www.w3.org/2000/svg" xmlns:xlink="http://www.w3.org/1999/xlink" version="1.1" x="0px" y="0px" viewBox="0 0 74 92.5" style="enable-background:new 0 0 74 74;" xml:space="preserve"><path d="M64.61,68.47V36.83c0-15.32-20.11-27.98-26.28-31.49c-0.84-0.45-1.79-0.45-2.63,0C29.53,8.85,9.42,21.51,9.42,36.83  c0.22,32.48-0.46,32.13,0.49,32.13C66.59,68.73,64.61,69.44,64.61,68.47z M36.52,12.68v10.16c-4.2,0.15-7.91,2.2-10.3,5.33  l-3.95-3.94C26.15,19.9,31.38,15.86,36.52,12.68z M37.51,22.84V12.68c5.17,3.19,10.43,7.25,14.32,11.61l-3.95,3.96  C45.28,24.8,41.49,22.97,37.51,22.84z M23.4,68.06h-7.25v-12.2h7.25V68.06z M23.4,54.87h-7.25V42.56h7.25V54.87z M23.4,41.57h-7.25  c0.54-3.16-2.09-7.73,5.47-16.6l4.01,4.01C22.46,33.82,23.68,38.05,23.4,41.57z M45.7,41.28h-0.48v0.98h0.48v6.32h-4.93v0.98h4.93  v6.32h-4.93v0.98h4.93v6.32h-4.93v0.98h4.93v3.89H39.3V43.91c3.22-0.16,4.45,0.37,4.45-0.49c-0.16-2.85,0.36-4.07-0.49-4.07H39.3  v-5.1c0-0.86-1.22-0.33-4.07-0.49c-0.89,0-0.32,1.2-0.49,5.59c-3.22,0.16-4.45-0.37-4.45,0.49c0.15,2.85-0.36,4.07,0.49,4.07h3.96  v24.15h-6.41v-3.89h4.93v-0.98h-4.93v-6.32h4.93v-0.98h-4.93v-6.32h4.93v-0.98h-4.93v-6.32h0.48v-0.98h-0.48  c0.23-3.63-0.69-6.33,1.38-9.55l3.55,4.77v-1.65l-2.94-3.97c1.46-1.75,3.58-2.92,5.98-3.12v4.51h0.98v-4.54  c2.5,0.08,4.81,1.2,6.44,3.16l-2.94,3.97v1.65l3.54-4.78C46.37,34.91,45.49,37.63,45.7,41.28z M57.89,68.06h-7.26v-12.2h7.26V68.06z   M57.89,54.87h-7.26V42.56h7.26V54.87z M57.89,41.57h-7.26c-0.28-3.64,0.92-7.73-2.17-12.51l4.02-4.02  C59.93,33.84,57.34,38.38,57.89,41.57z"/><text x="0" y="89" fill="#000000" font-size="5px" font-weight="bold" font-family="'Helvetica Neue', Helvetica, Arial-Unicode, Arial, Sans-serif">Created by Azam Ishaq</text><text x="0" y="94" fill="#000000" font-size="5px" font-weight="bold" font-family="'Helvetica Neue', Helvetica, Arial-Unicode, Arial, Sans-serif">from the Noun Project</text></svg>