<svg
   version="1.1"
   id="Calque_1"
   x="0px"
   y="0px"
   viewBox="0 0 1190.6 841.9"
   style="enable-background:new 0 0 1190.6 841.9;"
   xml:space="preserve"
   xmlns="http://www.w3.org/2000/svg"
   xmlns:svg="http://www.w3.org/2000/svg"><defs
   id="defs75" /><sodipodi:namedview
   id="namedview73"
   pagecolor="#ffffff"
   bordercolor="#000000"
   borderopacity="0.25"
   inkscape:showpageshadow="2"
   inkscape:pageopacity="0.0"
   inkscape:pagecheckerboard="0"
   inkscape:deskcolor="#d1d1d1"
   showgrid="false"
   inkscape:zoom="0.95498275"
   inkscape:cx="595.82228"
   inkscape:cy="352.36239"
   inkscape:window-width="1920"
   inkscape:window-height="991"
   inkscape:window-x="-9"
   inkscape:window-y="-9"
   inkscape:window-maximized="1"
   inkscape:current-layer="g66" />
<style
   type="text/css"
   id="style2">
</style>
<g
   id="g10">
	<g
   id="g6">
		<path
   class="st0"
   d="M756,249.7c2.5,2.5,2.5,6.5-0.1,9.1L608.7,406c-12.2-77.7,45.5-154.2,81.4-185.3    c-40.4,15.5-86.8-9.3-95.2-49.8c0,0-95.3,75.4-53,195L434.8,258.7c-2.5-2.5-2.5-6.5,0.1-9.1l156-156c2.5-2.5,6.6-2.6,9.1-0.1    L756,249.7z"
   id="path4" />
	</g>
	<path
   class="st1"
   d="M557.9,355.6c-20.4-61.1-6.9-129.2,36.7-184c-2.2,32.5,23.5,61,53.8,64.5c-35.3,42.9-56.8,106.2-47.6,170.1   c0,0,2.1,9.9-4.2,10.7C585.4,418.3,563.7,372.9,557.9,355.6z"
   id="path8" />
</g>
<g id="g66">
</g>
<path
   class="st3"
   d="M717.7,149.2c0.2-32.6-22.4-59.1-50.4-59.2c-28-0.1-50.8,26.1-51,58.7c-0.1,25.8,14,47.8,33.9,55.9  c0.2,0.1,0.5,0.2,0.7,0.3c0.3,0.1,0.5,0.2,0.8,0.3c5.1,2,10.7,3,16.5,3c21.5,0,39.5-14.6,44.7-34.4C716,166.3,717.7,158,717.7,149.2  z"
   id="path68" />
<circle
   class="st1"
   cx="668.2"
   cy="162"
   r="34.2"
   id="circle70" />
</svg>
