<svg
   version="1.1"
   viewBox="-5.0 -10.0 110.0 135.0"
   id="svg8"
   xmlns="http://www.w3.org/2000/svg"
   xmlns:svg="http://www.w3.org/2000/svg">
  <defs
     id="defs12" />
  <sodipodi:namedview
     id="namedview10"
     pagecolor="#ffffff"
     bordercolor="#000000"
     borderopacity="0.25"
     inkscape:showpageshadow="2"
     inkscape:pageopacity="0.0"
     inkscape:pagecheckerboard="0"
     inkscape:deskcolor="#d1d1d1"
     showgrid="false"
     inkscape:zoom="4.2112137"
     inkscape:cx="179.75815"
     inkscape:cy="74.444096"
     inkscape:window-width="1920"
     inkscape:window-height="991"
     inkscape:window-x="-9"
     inkscape:window-y="-9"
     inkscape:window-maximized="1"
     inkscape:current-layer="svg8" />
  <path
     d="m8.9883 73.926c4.1875 0 8.0469-3.2344 10.25-5.5195 2.207 2.2891 6.0625 5.5195 10.25 5.5195s8.0469-3.2344 10.254-5.5195c2.207 2.2891 6.0625 5.5195 10.25 5.5195 4.1914 0 8.0508-3.2344 10.258-5.5234 2.207 2.2891 6.0703 5.5234 10.266 5.5234 4.1875 0 8.043-3.2344 10.246-5.5195 2.207 2.2891 6.0625 5.5195 10.25 5.5195 1.293 0 2.3438-1.0508 2.3438-2.3438s-1.0508-2.3438-2.3438-2.3438c-3.2148 0-7.2305-4.3125-8.3828-5.8203-0.88672-1.168-2.8477-1.168-3.7305 0-1.1484 1.5117-5.1484 5.8203-8.3789 5.8203-3.2188 0-7.2461-4.3125-8.3984-5.8203-0.44141-0.58203-1.1328-0.92188-1.8633-0.92188h-0.003906c-0.73047 0-1.418 0.33984-1.8633 0.92188-1.1562 1.5117-5.1758 5.8242-8.3945 5.8242-3.2109 0-7.2305-4.3125-8.3828-5.8203-0.44141-0.58203-1.1328-0.92578-1.8633-0.92578h-0.003906c-0.73047 0-1.418 0.33984-1.8633 0.92188-1.1562 1.5117-5.1758 5.8242-8.3906 5.8242-3.2148 0-7.2305-4.3125-8.3828-5.8203-0.44141-0.58203-1.1328-0.92578-1.8672-0.92578-0.73047 0-1.4219 0.34375-1.8672 0.92578-1.1484 1.5117-5.1523 5.8203-8.3867 5.8203-1.293 0-2.3438 1.0508-2.3438 2.3438 0 1.293 1.0508 2.3398 2.3438 2.3398zm82.023 8.5234c-3.2148 0-7.2305-4.3125-8.3828-5.8203-0.88672-1.168-2.8477-1.168-3.7305 0-1.1484 1.5117-5.1484 5.8203-8.3789 5.8203-3.2188 0-7.2461-4.3125-8.3984-5.8203-0.44141-0.58203-1.1328-0.92188-1.8633-0.92188h-0.003906c-0.73047 0-1.418 0.33984-1.8633 0.92188-1.1562 1.5117-5.1758 5.8242-8.3945 5.8242-3.2109 0-7.2305-4.3125-8.3828-5.8203-0.44141-0.58203-1.1328-0.92578-1.8633-0.92578h-0.003906c-0.73047 0-1.418 0.33984-1.8633 0.92188-1.1562 1.5117-5.1758 5.8242-8.3906 5.8242-3.2148 0-7.2305-4.3125-8.3828-5.8203-0.44141-0.58203-1.1328-0.92578-1.8672-0.92578-0.73047 0-1.4219 0.34375-1.8672 0.92578-1.1484 1.5117-5.1523 5.8203-8.3867 5.8203-1.293 0-2.3438 1.0508-2.3438 2.3438s1.0508 2.3438 2.3438 2.3438c4.1875 0 8.0469-3.2344 10.25-5.5195 2.207 2.2891 6.0625 5.5195 10.25 5.5195s8.0469-3.2344 10.254-5.5195c2.207 2.2891 6.0625 5.5195 10.25 5.5195 4.1914 0 8.0508-3.2344 10.258-5.5234 2.207 2.2891 6.0703 5.5234 10.266 5.5234 4.1875 0 8.043-3.2344 10.246-5.5195 2.207 2.2891 6.0625 5.5195 10.25 5.5195 1.293 0 2.3438-1.0508 2.3438-2.3438 0-1.3008-1.0508-2.3477-2.3438-2.3477zm-60.305-18.875c1.293 0 2.3438-1.0508 2.3438-2.3438v-6.9141h30.992v6.9141c0 1.293 1.0508 2.3438 2.3438 2.3438s2.3438-1.0508 2.3438-2.3438l0.003906-39.293c0-2.418 1.9688-4.3867 4.3828-4.3867 2.418 0 4.3867 1.9688 4.3867 4.3867v3.7891c0 1.293 1.0508 2.3438 2.3438 2.3438 1.293 0 2.3438-1.0508 2.3438-2.3438v-3.7891c0-5.0039-4.0703-9.0742-9.0742-9.0742-5.0039 0-9.0703 4.0703-9.0703 9.0742v13.227h-30.996v-13.227c0-2.418 1.9688-4.3867 4.3867-4.3867s4.3828 1.9688 4.3828 4.3867v3.7891c0 1.293 1.0508 2.3438 2.3438 2.3438 1.293 0 2.3438-1.0508 2.3438-2.3438v-3.7891c0-5.0039-4.0703-9.0742-9.0703-9.0742-5.0039 0-9.0742 4.0703-9.0742 9.0742v39.293c0 1.2969 1.0508 2.3438 2.3438 2.3438zm2.3438-23.723h30.992v9.7773h-30.992z"
     id="path2"
     style="fill:#0000ff" />
</svg>
