<svg version="1.1" id="Calque_1" xmlns="http://www.w3.org/2000/svg" x="0" y="0" viewBox="0 0 119.9 166.6" xml:space="preserve"><style>.st0{fill:#004995}.st6,.st8{fill-rule:evenodd;clip-rule:evenodd;fill:#319c32}.st8{fill:#004995}</style><path class="st0" d="M25.7 5.3l-.1 92.2c.7-4.9 1.9-10.7 3.9-16.6l.1-71.7h81v101.6H29.5v-6.3c.2-4.2.9-9.7 2.4-15.7 1.9-7.2 4.7-13.7 8.5-19.1 4.7-6.7 10.7-12 18.1-15.5l-1.7-3.5C45.1 56.4 36.4 66.1 31.1 79c-3.7 9.6-5 19-5.4 25.2h-.1c-.3 4.8 0 8 0 8.2v2.3h88.9V5.3H25.7z"/><path fill-rule="evenodd" clip-rule="evenodd" fill="#e85023" d="M67.2 29.9L74.3 13 84 36.7 74.4 46l-1.3-1.4 8.5-8.6-7.3-17.5-5.2 12.1-1.9-.7"/><path fill-rule="evenodd" clip-rule="evenodd" fill="#a13389" d="M57.8 40.3l-7.4-16.7 23.9 9 .1 13.7h-2.1V33.9l-17.9-6.7 5.2 12.2-1.8.9"/><path fill-rule="evenodd" clip-rule="evenodd" fill="#ee7d00" d="M81.1 29.6l17.2-6.2-10.5 22.4-13.7.1.1-2.1h12.4l7.8-16.7L82 31.6l-.9-2"/><path fill-rule="evenodd" clip-rule="evenodd" fill="#ffd039" d="M90.9 39.3l16.4 6.7-23.8 9.8-9.1-9.8 1.5-1.4 7.8 8.8 18.2-7.6L90 41.2l.9-1.9"/><path fill-rule="evenodd" clip-rule="evenodd" fill="#c5d31f" d="M91.2 52.7l6.9 15.9-23.8-9.2V45.8h1.9l.1 12.3 17.8 6.8-4.8-11.4 1.9-.8"/><path class="st6" d="M81.4 62.2l-7.1 16.7-9.7-23.7 9.7-9.3 1.3 1.4-8.6 8.5 7.3 17.7 5.2-12.1 1.9.8"/><path fill-rule="evenodd" clip-rule="evenodd" fill="#00b3e2" d="M67.4 62.1L51 68.7l9.9-22.9h13.4v2h-12l-7.2 17.1 11.5-4.7.8 1.9"/><path class="st8" d="M57.9 52.9L41.3 46l23.8-9.8 9.2 10.1-1.4 1.2-8.3-8.8-17.9 7.1 12 5.2-.8 1.9"/><path d="M74.4 51.3c-2.9 0-5.3-2.4-5.3-5.3s2.4-5.3 5.3-5.3 5.3 2.4 5.3 5.3-2.4 5.3-5.3 5.3" fill-rule="evenodd" clip-rule="evenodd" fill="#fff"/><path class="st0" d="M20.6 5.2h3.9v109.4h-3.9zm-1.2 109.5h-14V5.2h14v109.5zm-10-3.9h6.1V9.1H9.4v101.7zm-3.9 46.7h108.7v3.9H5.5z"/><path class="st6" d="M30.6 127h4.8v1.1h-6.1v-9.4h1.3v8.3m13.1 1.1h-7v-9.4h6.9v1.1H38v2.9h5.2v1.1H38v3.2h5.7v1.1m7.3-6.6c-.1-1.5-1.3-1.9-2.3-1.9-.8 0-2.1.2-2.1 1.6 0 .8.6 1.1 1.1 1.2l2.7.6c1.2.3 2.1 1 2.1 2.5 0 2.2-2.1 2.8-3.7 2.8-1.7 0-2.4-.5-2.8-.9-.8-.7-1-1.5-1-2.4h1.2c0 1.7 1.4 2.2 2.6 2.2.9 0 2.5-.2 2.5-1.6 0-1-.5-1.3-2-1.7l-1.9-.4c-.6-.1-2-.6-2-2.2 0-1.5 1-2.9 3.2-2.9 3.3 0 3.6 2 3.7 3H51m8.1-1.6h2.6c1 0 1.9.4 1.9 1.6 0 1.3-.8 1.7-1.9 1.7h-2.5v-3.3zm0 4.3h3c2 0 2.8-1.5 2.8-2.8 0-1.5-1-2.6-2.8-2.6h-4.2v9.4h1.3v-4m8.5 2.9h4.7v1.1h-6v-9.4h1.3v8.3m13.4-8.3v6.1c0 1.9-1.2 3.5-3.8 3.5-2.5 0-3.6-1.6-3.6-3.4v-6.3H75v5.9c0 2 1.2 2.6 2.4 2.6s2.5-.5 2.5-2.6v-5.9h1.2m7.6 2.9c-.1-1.5-1.3-1.9-2.3-1.9-.8 0-2.1.2-2.1 1.6 0 .8.6 1.1 1.1 1.2l2.7.6c1.2.3 2.1 1 2.1 2.5 0 2.2-2.1 2.8-3.7 2.8-1.7 0-2.4-.5-2.8-.9-.8-.7-1-1.5-1-2.4h1.2c0 1.7 1.4 2.2 2.6 2.2.9 0 2.5-.2 2.5-1.6 0-1-.5-1.3-2-1.7l-1.9-.4c-.6-.1-2-.6-2-2.2 0-1.5 1-2.9 3.2-2.9 3.3 0 3.6 2 3.7 3h-1.3"/><path class="st8" d="M7.3 136.8h2.5c.7 0 1.4.3 1.4 1.1 0 1-.5 1.4-1.5 1.4H7.3v-2.5zm-1.9 4.1h4c1.9 0 2.4-.3 3-.8.5-.5.8-1.2.8-1.9 0-.9-.3-1.8-1.5-2.3.4-.2 1.2-.6 1.2-1.9 0-1-.6-2.4-2.9-2.4H5.4v9.3zm1.9-7.8h2.2c.9 0 1.4.2 1.4 1 0 .7-.6 1-1.4 1H7.3v-2m14.3.1h-5v1.9h4.6v1.7h-4.6v2.4h5.2v1.7h-7.1v-9.4h6.9v1.7m5.4.4l1.2 3.7h-2.4l1.2-3.7zm-1.8 5.3h3.5l.6 1.9h2.1l-3.3-9.4h-2.3l-3.3 9.4h2.1l.6-1.9m14.2-1.3c0 2.5-1.5 3.5-3.9 3.5-.9 0-2.1-.2-3-1.1-.5-.6-.7-1.3-.7-2.3v-6.2h2v6.1c0 1.3.8 1.9 1.7 1.9 1.3 0 1.9-.7 1.9-1.8v-6.2h2v6.1m9.3 3.3h-2.4l-1.7-3.2-1.9 3.2h-2.3l3-4.8-2.9-4.6h2.4l1.7 3 1.7-3h2.2l-2.8 4.5 3 4.9m6.5-7.8h1.9c.8 0 2.2.2 2.2 3 0 1.5-.5 3.1-2.1 3.1h-1.9v-6.1zm-1.9 7.8h4.1c3.1 0 3.9-2.9 3.9-4.9 0-1.8-.7-4.5-3.8-4.5h-4.1v9.4m16-7.7h-4.9v1.9H69v1.7h-4.5v2.4h5.2v1.7h-7.2v-9.4h6.9v1.7m5.7 7.7h-2v-7.7h-2.8v-1.7h7.6v1.7h-2.8v7.7m4.9-4.7c0-2.6 1.5-3.3 2.5-3.3 1.1 0 2.5.7 2.5 3.3 0 2.6-1.5 3.3-2.5 3.3s-2.5-.7-2.5-3.3zm-2 0c0 4.4 3.3 4.9 4.5 4.9 1.2 0 4.5-.5 4.5-4.9s-3.3-4.9-4.5-4.9c-1.2 0-4.5.5-4.5 4.9m18 1.4c0 2.5-1.5 3.5-3.9 3.5-.9 0-2.1-.2-3-1.1-.5-.6-.7-1.3-.7-2.3v-6.2h2v6.1c0 1.3.8 1.9 1.7 1.9 1.3 0 1.9-.7 1.9-1.8v-6.2h2v6.1m3.7-1.9v-2.5h2.4c1.1 0 1.4.7 1.4 1.2 0 .9-.5 1.3-1.5 1.3h-2.3zm-1.9 5.2h1.9v-3.7h2c1.4 0 1.5.5 1.5 1.8 0 1 .1 1.4.2 1.9h2.2v-.2c-.4-.2-.4-.5-.4-1.9 0-1.7-.4-2-1.2-2.4.9-.3 1.5-1.2 1.5-2.2 0-.8-.5-2.7-3-2.7h-4.7v9.4m10.6-2.9c0 .5.3 1.5 2 1.5.9 0 2-.2 2-1.2 0-.7-.7-.9-1.7-1.2l-1-.2c-1.5-.4-3-.7-3-2.8 0-1 .6-2.9 3.6-2.9 2.9 0 3.6 1.9 3.7 3h-1.9c-.1-.4-.2-1.4-1.9-1.4-.7 0-1.6.3-1.6 1.1 0 .7.6.9 1 1l2.3.6c1.3.3 2.5.8 2.5 2.5 0 2.8-2.9 3.1-3.7 3.1-3.4 0-4-2-4-3.1h1.7"/><path class="st6" d="M26 145.4h2.4c1.7 0 2.8 1.2 2.8 3.6 0 2.4-1.1 3.7-2.7 3.7H26v-7.3zm-1.3 8.3h3.7c3.1 0 4-2.7 4-4.8 0-2.7-1.5-4.6-3.9-4.6h-3.8v9.4m16.4 0h-6.9v-9.4H41v1.1h-5.5v2.9h5.1v1.1h-5.1v3.2h5.6v1.1m6.7 0h-1.2v-9.4h6.5v1.1h-5.3v2.9h4.6v1.1h-4.6v4.3m8-8.3H59c.6 0 1.7.1 1.7 1.6 0 1.4-1 1.6-1.9 1.6h-2.9v-3.2zm0 4.3h3.1c1.5 0 1.7.9 1.7 1.7 0 .4 0 1.8.2 2.4h1.6v-.2c-.4-.2-.5-.4-.5-.9l-.1-1.7c-.1-1.3-.6-1.5-1.1-1.8.6-.4 1.3-.9 1.3-2.2 0-2-1.5-2.5-3.1-2.5h-4.3v9.4h1.3v-4.2m9.8.1l1.5-4.1 1.4 4.1h-2.9zm3.4 1.2l.9 2.7h1.4l-3.4-9.4h-1.4l-3.5 9.4h1.3l1-2.7h3.7m9.7-6.7H80v9.4h-1.4l-4.8-7.6v7.6h-1.2v-9.4h1.5l4.7 7.6v-7.6m9.8 2.8c-.4-1.6-1.7-1.9-2.6-1.9-1.7 0-3.1 1.3-3.1 3.7 0 2.2.8 3.9 3.1 3.9.8 0 2.2-.4 2.7-2.6h1.2c-.5 3.5-3.4 3.7-4.1 3.7-2.1 0-4.2-1.4-4.2-5 0-2.9 1.6-4.9 4.4-4.9 2.4 0 3.7 1.5 3.9 3.1h-1.3m9.9 6.6h-6.9v-9.4h6.8v1.1h-5.6v2.9H98v1.1h-5.2v3.2h5.7v1.1"/></svg>