<svg id="Calque_1" data-name="Calque 1" xmlns="http://www.w3.org/2000/svg" viewBox="0 0 512 512" height="200" width="200"><title>logo</title><circle cx="248.5" cy="253.5" r="239.5" fill="#fff"/><path d="M262.24,292.94c16.89-11,9.26-29.27.81-33s-36-8-49.58,15.84c-5.72,11.28,1.36,25.77,1.36,25.77S245.34,304,262.24,292.94Z" fill="#0078a2"/><path d="M248,109.7c-75.9,0-137.43,60.65-137.43,135.46S172.05,380.61,248,380.61,385.39,320,385.39,245.16,323.86,109.7,248,109.7ZM134.67,272.6A141.6,141.6,0,0,0,219,358.55C174.59,351.16,140.71,316.58,134.67,272.6Zm113.4,58.74c-39.28,0-51.81-17.15-54.95-25.62-21.37-2.79-32.5-9.69-32.5-9.69l-4.19-1.43a131.87,131.87,0,0,0,35,4.52c-3.82-50.75,62.65-53.43,61.84-53.16,6.53-.81,37,3.76,37,23.09S275,308,229.82,308c-4.23,0-8.26-.09-12.11-.23,4.28,6.67,14.43,16.34,37.44,16.34,35.14,0,72.82-17.6,72.82-17.6S295.47,331.34,248.07,331.34ZM217.56,237.9s19.61-12.08,26.7-20.14l21.79,1.07S244,240.05,217.56,237.9Zm80.81-12.46-22.11-28.63h-65L202,157.42l-11.82,49.65H176.07l-19,18.37H123.36c9.83-59.09,61.87-103.23,124.6-103.23s114.77,44.14,124.6,103.23Z" fill="#0078a2"/><path d="M246.71,132.72a159.35,159.35,0,0,1,112.4,74.77C342.19,160.74,297,130.69,246.71,132.72Z" fill="#0078a2"/><path d="M82.53,325.55l-3.88-7.45,25.4-12.83,3.87,7.46C116.58,329.39,91.19,342.22,82.53,325.55Zm19-12.71-15.24,7.7L87.61,323c5.06,9.73,20.29,2,15.23-7.7Z" fill="#0078a2"/><path d="M93.43,344.52l23.25-16.29L125,339.71,120.3,343l-5-6.89-4.65,3.26,4.35,6-4.65,3.26-4.35-6-4.65,3.26,5.25,7.28L102,356.37Z" fill="#0078a2"/><path d="M112.1,356.48a12.58,12.58,0,0,0,3.81,7.44c1.22,1.14,3.07,1.39,4.11.23s.83-2.55.16-4.08c-1.81-4.34-2.82-8.75.71-11.94a8.45,8.45,0,0,1,11.86.08,16.46,16.46,0,0,1,3.91,6l-4.55,3.14a12.71,12.71,0,0,0-3-5,2.85,2.85,0,0,0-4.27.06c-1.07,1.18-.66,2.67,0,4.23,1.78,4.31,2.48,8.8-.88,11.82s-8.39,3.2-12.2-.51a17.51,17.51,0,0,1-4.56-7.94Z" fill="#0078a2"/><path d="M139.34,392.58l7.42-30.1,5.35,3.79-2.47,9.78L147.87,382l5-3.39,8.77-5.55,5.34,3.79-26.6,16.5Z" fill="#0078a2"/><path d="M155.18,402.08l14-24.52,5,2.75-14,24.52Z" fill="#0078a2"/><path d="M184.08,385.12l-9.21,20.58,8.28,3.6-2.3,5.14-13.5-5.87,11.51-25.72Z" fill="#0078a2"/><path d="M201.26,391.53,194.59,413l8.66,2.61L201.58,421l-14.12-4.25,8.34-26.89Z" fill="#0078a2"/><path d="M222.72,395.48l.6.1,7.18,30.63-6.34-1L223.5,422l-9.33-1.47-1.59,2.82-6.38-1Zm-.46,21-1.39-7.62-3.81,6.8Z" fill="#0078a2"/><path d="M249.39,426.8c-18.83-.3-19.34-28.11.47-28.51a19.66,19.66,0,0,1,6.64,1.13l-.77,5.69a13.7,13.7,0,0,0-6-1.11c-11.53.21-11.29,17-.28,17.18a10.79,10.79,0,0,0,1.6-.13l.14-8.46,5.78.1L256.8,425A14.87,14.87,0,0,1,249.39,426.8Z" fill="#0078a2"/><path d="M265.59,425.9,261.83,398,276,396.17l.76,5.57-8.51,1.12.76,5.57,7.43-1,.75,5.57-7.43,1,.75,5.57,9-1.18.75,5.58Z" fill="#0078a2"/><path d="M285.05,415.2a13,13,0,0,0,8.45.13c1.59-.53,2.67-2,2.12-3.48s-1.91-1.9-3.59-2c-4.74-.44-9.18-1.6-10.39-6.17a8.22,8.22,0,0,1,5.58-10.31,17.21,17.21,0,0,1,7.17-.63l.71,5.42a13.23,13.23,0,0,0-5.94.32,2.78,2.78,0,0,0-1.93,3.75c.56,1.48,2.1,1.82,3.82,1.94,4.7.45,9.05,1.93,10.21,6.26,1.2,4.53-1,8.81-6.14,10.41a18,18,0,0,1-9.25.28Z" fill="#0078a2"/><path d="M321.67,411.57l-12.4-25.32,12.86-6.12,2.48,5.07-7.72,3.67,2.48,5.06,6.75-3.21,2.48,5.06L321.85,399l2.48,5.06,8.15-3.88,2.48,5.06Zm-3.28-36.82-1.45,5.71-4.64,2.21-.23-4.91Z" fill="#0078a2"/><path d="M345.51,399l-12.42-18.87-6,3.81-3.08-4.68,16.7-10.68,3.08,4.68-6,3.81L350.3,396Z" fill="#0078a2"/><path d="M347.59,361.53l.46-.38,28.28,14.57-4.9,4.09-2.87-1.57-7.21,6,1.14,3-4.93,4.12Zm15.9,14-6.78-3.92,2.76,7.28Z" fill="#0078a2"/><path d="M380.89,370.93l-21.46-18.46,7.37-8.33c7.3-8.23,20.52,3.2,13.26,11.41l-3.63,4.09,8.21,7.06Zm-5.33-18.62c2.52-2.84-2.29-7-4.81-4.14l-3.3,3.74,4.81,4.13Z" fill="#0078a2"/><path d="M397.71,350.9l-23.77-15.55,7.9-11.73,4.75,3.11-4.74,7,4.75,3.11,4.15-6.16,4.75,3.11L391.36,340l4.75,3.11,5-7.44,4.75,3.11Z" fill="#0078a2"/><path d="M402.35,329.42a12.72,12.72,0,0,0,5.67-6.18,2.82,2.82,0,0,0-1.26-3.87c-1.52-.61-2.71.17-3.92,1.33-3.46,3.22-7.27,5.74-11.56,3.64a8.2,8.2,0,0,1-4.19-10.93,16.69,16.69,0,0,1,4.24-5.74l4.6,3.05a12.77,12.77,0,0,0-3.66,4.61,2.78,2.78,0,0,0,1.59,3.91c1.5.56,2.77-.36,4-1.56,3.43-3.19,7.43-5.44,11.5-3.44,4.25,2.08,6,6.56,3.91,11.4a17.73,17.73,0,0,1-5.88,7.05Z" fill="#0078a2"/><path d="M76.07,203.36l5.53,1.35,1.75-6.94,5.54,1.35-1.75,6.95,11.08,2.71-1.38,5.45-27.69-6.77,3.43-13.62,5.54,1.35Z" fill="#0078a2"/><path d="M73.5,172.39l2.92,5.14-1.84,4.74L71,178.85Zm28,24.58L74.86,186.92,80,173.77l5.33,2-3.07,7.9,5.33,2,2.68-6.9,5.33,2-2.68,6.9,5.33,2,3.23-8.33,5.33,2Z" fill="#0078a2"/><path d="M112.62,172.15l-4.19,7.29L83.62,165.56l4.19-7.28C97.18,142,122,155.88,112.62,172.15Zm-21.22-8.7,14.88,8.32,1.38-2.39c5.47-9.51-9.41-17.83-14.89-8.32Z" fill="#0078a2"/><path d="M103,125l1.25,5.76-3.18,4-2.4-4.3Zm19.39,31.65L99.94,139.24l8.82-11.08,4.48,3.47L108,138.28l4.49,3.48,4.63-5.82,4.49,3.47-4.64,5.82,4.49,3.47,5.59-7,4.49,3.47Z" fill="#0078a2"/><path d="M144.62,132.14l-11.7-3.79-2,1.89L138.5,138l-4.1,3.9-19.81-20.22,8.09-7.71c7.32-7,18,2.52,13.65,10l12.94,3.81Zm-17.53-5.84,3.61-3.44c2.79-2.65-1.64-7.17-4.43-4.52l-3.62,3.44Z" fill="#0078a2"/><path d="M142.25,96.9l.49-.33,26.8,17.07-5.27,3.63-2.71-1.82-7.74,5.35.85,3.11-5.3,3.65Zm14.51,15.43-6.38-4.53,2.07,7.51Z" fill="#0078a2"/><path d="M174.92,111.16l-10.42-20-6.32,3.19-2.59-5,17.71-9,2.59,5-6.32,3.2,10.42,20Z" fill="#0078a2"/><path d="M189.73,104.28,179.46,78.06l5.32-2,10.27,26.23Z" fill="#0078a2"/><path d="M207,69.07c19.14-4.31,25.69,24,6.55,28.25S187.82,73.38,207,69.07Zm1.31,5.63c-11.13,2.51-7.2,19.45,3.93,17S219.39,72.2,208.27,74.7Z" fill="#0078a2"/><path d="M237.56,93.4l-5.7.18-.94-28.69,1.51,0,14.94,16L246.85,65l5.74-.19.94,28.66-1.51,0-15-15.42Z" fill="#0078a2"/><path d="M279.51,73.46l-1,5.52,7.14,1.3-1,5.53-7.14-1.3-2.07,11.06-5.61-1,5.17-27.64,14,2.54-1,5.53Z" fill="#0078a2"/><path d="M300.93,102.34l-2.05-12-2.61-.85-3.41,10.2L287.44,98l8.93-26.7,10.68,3.47c9.66,3.14,6.13,16.85-2.59,16.54l2.6,13.06Zm-2.93-18,4.78,1.55c3.67,1.2,5.67-4.78,2-6L300,78.36Z" fill="#0078a2"/><path d="M331.49,83.88l.53.27-2.88,31.33-5.71-2.91.38-3.21-8.4-4.27-2.4,2.18-5.75-2.92Zm-7.11,19.84,1.1-7.67-5.78,5.29Z" fill="#0078a2"/><path d="M336.07,120.45l-4.56-3.37,17.5-23,1.21.9,1.45,21.73,9.68-12.7,4.6,3.4-17.48,22.92-1.21-.9-1.86-21.25Z" fill="#0078a2"/><path d="M353.67,142.77a5.29,5.29,0,0,0,1.83,3.29c.55.45,1.39.69,1.85.26,1.1-1.15-.47-3.1-1.78-3.93l3.86-2.45c-8.05-13.37,10.87-29.48,23.27-16.75a13.51,13.51,0,0,1,3.09,4.76l-4.69,3.52a9.63,9.63,0,0,0-2.54-4.36c-7.82-8-20.36,3.85-12.54,11.87a12.2,12.2,0,0,0,4.73,3L367,146.59a18,18,0,0,1-5.2-3.63l-.08-.09-1.18.84c2.51,3,.79,6.94-3.13,7.22-3.34.38-6.86-2.72-7.52-7.6Z" fill="#0078a2"/><path d="M398.05,141l.34.48-17.34,26.41-3.69-5.19,1.86-2.67-5.42-7.64-3.16.83L366.93,148Zm-15.66,14.3L387,149l-7.61,2Z" fill="#0078a2"/><path d="M382.24,170.85l25.15-13.28,2.69,5-25.14,13.28Z" fill="#0078a2"/><path d="M394.59,177.33a12.45,12.45,0,0,0,1,8.27,2.87,2.87,0,0,0,3.77,1.62c1.47-.72,1.67-2.11,1.58-3.78-.18-4.68.42-9.17,4.85-11a8.41,8.41,0,0,1,11.1,4.11,16.48,16.48,0,0,1,1.58,6.92l-5.37,1.4a12.64,12.64,0,0,0-1.09-5.76,2.84,2.84,0,0,0-4-1.39c-1.42.74-1.55,2.28-1.45,4,.16,4.65-.75,9.1-5,10.8-4.39,1.77-9,.14-11.28-4.63a17.48,17.48,0,0,1-1.49-9Z" fill="#0078a2"/><path d="M394.87,199.38l27.58-7.2,3.65,13.61-5.51,1.44-2.2-8.17-5.51,1.44,1.92,7.15-5.52,1.44-1.92-7.15-5.51,1.44,2.32,8.63-5.52,1.44Z" fill="#0078a2"/><path d="M247.79,44C360.35,44,451.6,134,451.6,244.89S360.35,445.77,247.79,445.77,44,355.83,44,244.89,135.23,44,247.79,44m0-11.81A216.79,216.79,0,0,0,95.2,94.5,212,212,0,0,0,49,162.1a210.55,210.55,0,0,0,0,165.58A211.92,211.92,0,0,0,95.2,395.29a218.48,218.48,0,0,0,236.59,45.57,215.28,215.28,0,0,0,68.59-45.57,211.76,211.76,0,0,0,46.24-67.61,210.44,210.44,0,0,0,0-165.58,211.83,211.83,0,0,0-46.24-67.6A216.79,216.79,0,0,0,247.79,32.21Z" fill="#0078a2"/><path d="M447.78,147.15a216.49,216.49,0,0,1,24,99.36c0,121.46-99.9,219.92-223.14,219.92a223.65,223.65,0,0,1-192-107.92C93.44,430,168.77,479.07,255.73,479.07c123.23,0,223.13-98.46,223.13-219.92A216.5,216.5,0,0,0,447.78,147.15Z" fill="#d70052"/></svg>