<?xml version="1.0" encoding="UTF-8" standalone="no"?>
<!-- Created with Inkscape (http://www.inkscape.org/) -->
<svg
   xmlns:svg="http://www.w3.org/2000/svg"
   xmlns="http://www.w3.org/2000/svg"
   xmlns:xlink="http://www.w3.org/1999/xlink"
   version="1.0"
   width="300"
   height="299"
   id="svg2457">
  <defs
     id="defs2460" />
  <g
     id="layer1"
     style="display:none">
    <rect
       width="276.76666"
       height="276.76666"
       x="11.883333"
       y="11.116667"
       id="rect3307"
       style="opacity:1;fill:#5f4a00;fill-opacity:1;fill-rule:evenodd;stroke:none;stroke-width:0;stroke-linejoin:round;stroke-miterlimit:4;stroke-dasharray:none;stroke-dashoffset:0;stroke-opacity:1" />
    <rect
       width="239.58333"
       height="237.28334"
       x="30.666666"
       y="31.433332"
       id="rect3309"
       style="opacity:1;fill:#ffffff;fill-opacity:1;fill-rule:evenodd;stroke:none;stroke-width:0;stroke-linejoin:round;stroke-miterlimit:4;stroke-dasharray:none;stroke-dashoffset:0;stroke-opacity:1" />
  </g>
  <g
     id="layer2"
     style="display:inline">
    <g
       transform="scale(0,1)"
       id="g2500"
       style="opacity:1;fill:none;fill-opacity:1;fill-rule:nonzero;stroke:none;stroke-width:0;stroke-linejoin:miter;stroke-miterlimit:0;stroke-dasharray:none;stroke-dashoffset:0;stroke-opacity:1">
      <path
         d="M 55.910833,204.44612 C 56.174375,204.33979 56.39,204.01452 56.39,203.72332 C 56.39,203.07433 58.297973,199.57415 58.74819,199.39722 C 58.927023,199.32694 59.073333,198.95114 59.073333,198.56211 C 59.073333,198.17306 59.299032,197.62681 59.574887,197.34821 C 60.934999,195.97456 65.846714,182.78591 67.302457,176.59857 C 71.743945,157.72093 70.913783,140.73463 64.676731,122.87277 C 63.722457,120.13988 62.997095,117.84846 63.064826,117.78073 C 63.132554,117.713 63.723159,118.26713 64.377275,119.01212 C 65.031395,119.75712 65.701224,120.36768 65.865789,120.36891 C 66.030366,120.37015 67.368985,121.4914 68.840521,122.86058 C 70.312061,124.22976 71.57008,125.35 71.636133,125.35 C 71.987833,125.35 75.94,128.56037 75.94,128.84606 C 75.94,129.03155 76.107455,129.18333 76.312125,129.18333 C 76.835666,129.18333 80.156667,131.565 80.156667,131.94046 C 80.156667,132.11071 80.407577,132.25 80.714244,132.25 C 81.020918,132.25 81.703068,132.68125 82.230151,133.20833 C 82.757223,133.73542 83.370713,134.16667 83.593434,134.16667 C 83.81617,134.16667 85.408778,135.05058 87.13259,136.13092 C 90.54835,138.27161 98.859948,142.51437 101.64166,143.53725 L 103.38497,144.17828 L 108.66086,158.43498 C 111.5626,166.27616 114.17348,173.29542 114.46282,174.03333 C 116.73063,179.81699 117.01647,180.72173 116.61791,180.85459 C 116.38257,180.93304 116.19,181.28951 116.19,181.64675 C 116.19,182.44829 115.45541,183.08469 110.9721,186.16724 C 96.733185,195.95733 81.233201,202.09885 65.716477,204.09873 C 61.394643,204.65574 54.813507,204.88891 55.910833,204.44613 L 55.910833,204.44612 z"
         id="path2486"
         style="opacity:1;fill:none;fill-opacity:1;fill-rule:nonzero;stroke:none;stroke-width:0;stroke-linejoin:miter;stroke-miterlimit:0;stroke-dasharray:none;stroke-dashoffset:0;stroke-opacity:1" />
      <path
         d="M 102.00667,134.77962 C 96.714478,132.68777 96.256667,132.47968 96.256667,132.16596 C 96.256667,132.00135 95.971367,131.86667 95.622672,131.86667 C 94.72617,131.86667 86.570953,127.16717 84.181667,125.27373 C 83.970833,125.10665 82.159583,123.73032 80.156667,122.21522 C 73.083963,116.86511 63.013019,106.05233 57.517778,97.908735 L 55.599961,95.066667 L 58.00749,95.021276 C 59.33162,94.996306 60.528344,94.990962 60.666873,95.009397 C 60.805413,95.027835 63.392906,94.875196 66.416873,94.670204 C 77.202202,93.939073 86.986716,91.49137 97.214977,86.965718 C 99.534132,85.939569 101.56829,85.1 101.73532,85.1 C 101.90235,85.1 102.24737,84.919255 102.50201,84.69834 C 103.39323,83.92516 111.36002,79.35 111.81514,79.35 C 112.06786,79.35 112.36345,79.118578 112.47198,78.835728 C 112.58052,78.552878 113.60399,77.701065 114.74636,76.942805 C 115.88873,76.184545 117.04699,75.294721 117.32029,74.96541 C 117.59359,74.636096 118.14109,74.366667 118.53694,74.366667 C 118.93279,74.366667 119.25667,74.107917 119.25667,73.791667 C 119.25667,73.475417 119.43834,73.216667 119.66039,73.216667 C 120.15759,73.216667 132.29,61.165882 132.29,60.672045 C 132.29,60.476756 132.74887,59.898781 133.30972,59.387652 C 134.06623,58.698193 134.26816,58.629039 134.09204,59.119718 C 133.45681,60.889464 132.29807,68.226008 131.89581,73.025 C 131.37876,79.193454 131.33487,93.584505 131.81339,100.05 C 132.39126,107.85778 133.63277,105.74765 119.00897,121.81293 C 111.96046,129.55623 105.98457,135.93123 105.72924,135.97959 C 105.47391,136.02795 103.79875,135.48796 102.00667,134.77961 L 102.00667,134.77962 z"
         id="path2488"
         style="opacity:1;fill:none;fill-opacity:1;fill-rule:nonzero;stroke:none;stroke-width:0;stroke-linejoin:miter;stroke-miterlimit:0;stroke-dasharray:none;stroke-dashoffset:0;stroke-opacity:1" />
      <path
         d="M 175.22333,112.2731 C 174.48542,112.09159 168.87917,110.98163 162.765,109.80653 C 143.61908,106.12681 142.06827,105.79957 141.93722,105.41161 C 141.86694,105.20356 141.59252,105.03333 141.32739,105.03333 C 141.05643,105.03333 140.65561,104.15203 140.41209,103.02083 C 139.16915,97.247013 138.99921,95.27116 139.01922,86.825 C 139.04163,77.369635 139.59207,72.819882 141.72179,64.486465 C 143.18486,58.761615 146.24495,49.914313 147.9504,46.478377 C 148.13333,46.10986 148.78144,44.733045 149.39066,43.418806 C 149.99988,42.104567 150.59206,41.026442 150.70662,41.022973 C 150.82118,41.019503 151.80686,42.545887 152.89704,44.414936 C 163.31176,62.270419 182.21591,77.935351 202.2059,85.274758 C 206.62776,86.898251 215.01341,89.089304 219.3399,89.751616 L 222.36314,90.214414 L 217.48073,91.822011 C 211.11403,93.918342 203.54239,97.329568 196.30667,101.36152 C 194.93625,102.12516 193.21125,103.04808 192.47333,103.41247 C 191.73542,103.77686 191.04542,104.17179 190.94,104.29008 C 190.83458,104.40837 189.62708,105.17333 188.25667,105.98997 C 186.88625,106.8066 184.26226,108.47796 182.42555,109.70406 C 180.54661,110.95831 178.66049,111.93333 178.11305,111.93333 C 177.57784,111.93333 177.14,112.10583 177.14,112.31667 C 177.14,112.74113 177.12467,112.74078 175.22333,112.2731 L 175.22333,112.2731 z"
         id="path2490"
         style="opacity:1;fill:none;fill-opacity:1;fill-rule:nonzero;stroke:none;stroke-width:0;stroke-linejoin:miter;stroke-miterlimit:0;stroke-dasharray:none;stroke-dashoffset:0;stroke-opacity:1" />
      <path
         d="M 235.215,178.73256 C 230.79379,174.54424 223.76717,169.29304 218.15345,165.98195 C 213.02353,162.95625 204.06989,158.43195 200.61917,157.12184 C 198.93583,156.48275 198.22333,156.01215 198.22333,155.53945 C 198.22333,155.16943 197.96458,154.86667 197.64833,154.86667 C 197.33208,154.86667 197.07333,154.80265 197.07333,154.7244 C 197.07333,154.64615 194.89979,148.39302 192.24326,140.82856 C 185.75181,122.34433 185.19997,120.69219 185.19464,119.72487 C 185.18394,117.79946 196.18358,110.09115 205.66383,105.38047 C 209.01815,103.71371 212.06987,102.35 212.44534,102.35 C 212.82082,102.35 213.2265,102.19077 213.34679,101.99616 C 213.46704,101.80153 214.08271,101.52871 214.71491,101.38985 C 215.34714,101.25099 216.33702,100.90268 216.9147,100.61581 C 217.49235,100.32895 218.8275,99.8914 219.88167,99.643498 C 220.93583,99.395589 222.10876,99.033833 222.48818,98.839583 C 223.2877,98.430271 226.10301,97.77471 228.315,97.48279 C 229.15833,97.371497 230.05422,97.114303 230.30584,96.911259 C 230.55746,96.708215 232.02371,96.39484 233.56418,96.214877 C 235.10464,96.034909 237.14125,95.710452 238.09,95.493861 C 239.03875,95.27727 241.06697,95.092542 242.59712,95.083361 L 245.37924,95.066667 L 243.07276,99.667778 C 237.54283,110.69933 234.17206,121.77552 232.51553,134.35833 C 231.68193,140.69054 231.70068,152.61215 232.55394,158.76182 C 233.54566,165.90949 235.85819,174.72363 238.15888,180.12509 C 238.55326,181.05097 238.82849,181.85179 238.77045,181.90468 C 238.71246,181.95758 237.1125,180.53012 235.215,178.73257 L 235.215,178.73256 z"
         id="path2492"
         style="opacity:1;fill:none;fill-opacity:1;fill-rule:nonzero;stroke:none;stroke-width:0;stroke-linejoin:miter;stroke-miterlimit:0;stroke-dasharray:none;stroke-dashoffset:0;stroke-opacity:1" />
      <path
         d="M 166.79,242.20434 C 166.79,242.08571 167.14596,240.55846 167.58101,238.81044 C 169.86219,229.64496 170.83114,213.27049 169.88254,199.91718 C 169.5559,195.31894 169.54049,193.36927 169.8301,193.27274 C 170.05554,193.19759 170.24,192.71923 170.24,192.20972 C 170.24,191.64182 170.46252,191.28333 170.815,191.28333 C 171.13125,191.28333 171.39,191.05398 171.39,190.77366 C 171.39,190.49334 172.38187,189.16313 173.59417,187.81764 C 176.62764,184.45088 177.0539,183.96561 183.85033,176.14167 C 187.14692,172.34667 190.13385,168.98286 190.4879,168.66653 C 190.84198,168.35022 191.88085,167.18583 192.79652,166.07903 C 194.20795,164.37303 194.65964,164.06667 195.76371,164.06667 C 197.13689,164.06667 200.90667,165.52423 200.90667,166.05517 C 200.90667,166.22649 201.17032,166.36667 201.49259,166.36667 C 203.18696,166.36667 215.36044,173.57856 221.60594,178.28232 C 231.45013,185.69637 239.43884,194.27446 243.97765,202.30447 C 245.26769,204.58677 245.27719,204.63583 244.4707,204.85222 C 244.0184,204.97358 242.26833,205.08072 240.58167,205.09032 C 227.98399,205.16202 211.3612,209.21534 199.77545,215.04055 C 188.78084,220.56854 177.82716,229.20461 170.16628,238.38495 C 168.64863,240.20364 167.26809,241.85554 167.09843,242.05583 C 166.92881,242.25612 166.79,242.32295 166.79,242.20433 L 166.79,242.20434 z"
         id="path2494"
         style="opacity:1;fill:none;fill-opacity:1;fill-rule:nonzero;stroke:none;stroke-width:0;stroke-linejoin:miter;stroke-miterlimit:0;stroke-dasharray:none;stroke-dashoffset:0;stroke-opacity:1" />
      <path
         d="M 150.30667,258.55833 C 150.30667,258.24208 150.16133,257.98333 149.9837,257.98333 C 149.80606,257.98333 149.33169,257.34393 148.92953,256.56245 C 147.80056,254.3686 143.99779,248.95774 140.90295,245.14167 C 137.75319,241.25786 126.32692,230 125.53478,230 C 125.2733,230 119.85915,226.07304 119.44686,225.58435 C 119.23522,225.33349 118.67459,225.00525 118.20103,224.85495 C 117.72747,224.70464 117.34,224.42079 117.34,224.22417 C 117.34,224.02754 117.08125,223.86667 116.765,223.86667 C 116.44875,223.86667 116.19,223.69417 116.19,223.48333 C 116.19,223.2725 115.92782,223.1 115.60738,223.1 C 115.28695,223.1 114.38132,222.698 113.59488,222.20667 C 111.27754,220.75889 103.55986,216.96667 102.93078,216.96667 C 102.81806,216.96667 101.83092,216.56231 100.73709,216.06809 C 96.779322,214.27985 85.381653,211.14246 79.416239,210.19919 L 77.665,209.92228 L 79.581667,209.47988 C 83.046732,208.68007 91.783918,205.55342 96.621358,203.38213 C 99.233971,202.20946 101.6007,201.25 101.88078,201.25 C 102.16085,201.25 102.39,201.08912 102.39,200.8925 C 102.39,200.69588 102.74801,200.42137 103.18557,200.28249 C 104.65499,199.81612 114.03877,194.28089 118.61501,191.18109 L 123.14835,188.11038 L 125.70668,188.32785 C 127.11375,188.44745 129.04125,188.7343 129.99,188.96529 C 131.80267,189.40661 155.03337,193.91514 157.015,194.21019 C 157.6475,194.30436 158.77634,194.56274 159.52354,194.78434 C 160.75292,195.14895 160.92546,195.37525 161.33828,197.16446 C 162.34996,201.54928 162.71759,205.60457 162.699,212.175 C 162.65818,226.60655 159.60162,239.79666 152.72783,255.20417 C 151.09938,258.85434 150.30667,259.95251 150.30667,258.55833 z"
         id="path2496"
         style="opacity:1;fill:none;fill-opacity:1;fill-rule:nonzero;stroke:none;stroke-width:0;stroke-linejoin:miter;stroke-miterlimit:0;stroke-dasharray:none;stroke-dashoffset:0;stroke-opacity:1" />
      <path
         d="M 143.98167,182.97503 C 133.86167,181.20249 125.52417,179.58673 125.45389,179.38445 C 125.3836,179.18217 125.08173,179.01667 124.78306,179.01667 C 124.47194,179.01667 124.24,178.6401 124.24,178.135 C 124.24,177.65008 124.09207,177.08946 123.91126,176.88917 C 123.73045,176.68887 122.84922,174.2825 121.95295,171.54167 C 121.05669,168.80083 120.17164,166.21333 119.98619,165.79167 C 119.80075,165.37 118.97918,163.04125 118.16051,160.61667 C 117.34183,158.19208 115.70105,153.37643 114.51433,149.91522 C 112.34778,143.5962 112.02983,142.21667 112.74,142.21667 C 112.95083,142.21667 113.12333,141.93174 113.12333,141.58348 C 113.12333,141.23524 113.80365,140.24336 114.63515,139.37932 C 115.46665,138.51528 120.66442,132.80583 126.18573,126.69167 C 131.70706,120.5775 136.77857,115.00104 137.45578,114.29952 L 138.68706,113.02405 L 150.15103,115.30311 C 156.45621,116.55661 164.98845,118.23962 169.11158,119.04314 L 176.60812,120.5041 L 182.86504,138.35622 C 186.3063,148.17488 189.19123,156.38954 189.27595,156.61101 C 189.38171,156.88759 165.26261,185.10645 164.35587,185.76691 C 163.68193,186.25781 159.28106,185.65475 143.98167,182.97503 z"
         id="path2498"
         style="opacity:1;fill:none;fill-opacity:1;fill-rule:nonzero;stroke:none;stroke-width:0;stroke-linejoin:miter;stroke-miterlimit:0;stroke-dasharray:none;stroke-dashoffset:0;stroke-opacity:1" />
    </g>
    <g
       id="g3563">
      <path
         d="M 54.05,93.916667 C 54.05,93.916667 101.58333,100.81667 136.46667,54.433333 C 129.18333,69.766667 133.01667,107.33334 133.01667,107.33334 L 106.18333,136.85 C 106.18333,136.85 77.05,130.33333 54.05,93.916667 z"
         id="path2470"
         style="fill:#5f4a00;fill-opacity:1;fill-rule:evenodd;stroke:none;stroke-width:1px;stroke-linecap:butt;stroke-linejoin:miter;stroke-opacity:1" />
      <path
         d="M 150.65,39.1 C 150.65,39.1 171.35,84.716667 226.55,90.083333 C 205.85,93.533333 177.86667,113.46667 177.86667,113.46667 L 140.68333,106.18333 C 140.68333,106.18333 130.33333,79.35 150.65,39.1 z"
         id="path2472"
         style="fill:#5f4a00;fill-opacity:1;fill-rule:evenodd;stroke:none;stroke-width:1px;stroke-linecap:butt;stroke-linejoin:miter;stroke-opacity:1" />
      <path
         d="M 246.86667,93.916667 C 246.86667,93.916667 218.11667,138 241.5,186.3 C 225.01666,165.98333 197.03333,156.4 197.03333,156.4 L 184,119.21667 C 184,119.21667 206.23333,96.216667 246.86667,93.916667 z"
         id="path2474"
         style="fill:#5f4a00;fill-opacity:1;fill-rule:evenodd;stroke:none;stroke-width:1px;stroke-linecap:butt;stroke-linejoin:miter;stroke-opacity:1" />
      <path
         d="M 138.38333,112.31667 L 177.1,119.98333 L 190.13333,157.16667 L 164.06667,187.06667 L 124.2,180.16667 L 111.16667,142.21667 L 138.38333,112.31667 z"
         id="path2476"
         style="fill:#5f4a00;fill-opacity:1;fill-rule:evenodd;stroke:none;stroke-width:1px;stroke-linecap:butt;stroke-linejoin:miter;stroke-opacity:1" />
      <path
         d="M 54.05,205.46667 C 54.05,205.46667 83.95,165.21667 60.566667,114.23333 C 82.8,136.85 103.88333,143.75 103.88333,143.75 L 118.06667,181.7 C 118.06667,181.7 90.083333,206.23333 54.05,205.46667 z"
         id="path2480"
         style="fill:#5f4a00;fill-opacity:1;fill-rule:evenodd;stroke:none;stroke-width:1px;stroke-linecap:butt;stroke-linejoin:miter;stroke-opacity:1" />
      <path
         d="M 150.65,261.05 C 150.65,261.05 131.1,216.96667 73.983333,210.06667 C 100.43333,205.08334 123.43333,187.06667 123.43333,187.06667 L 161.38334,194.35 C 161.38334,194.35 170.58333,222.33333 150.65,261.05 z"
         id="path2482"
         style="fill:#5f4a00;fill-opacity:1;fill-rule:evenodd;stroke:none;stroke-width:1px;stroke-linecap:butt;stroke-linejoin:miter;stroke-opacity:1" />
      <path
         d="M 164.45,246.48333 C 164.45,246.48333 172.5,231.15 168.66667,192.43334 C 186.3,172.11667 195.11667,162.53333 195.11667,162.53333 C 195.11667,162.53333 231.91667,176.33333 246.48333,205.46667 C 200.48333,205.46667 177.1,229.23333 164.45,246.48333 z"
         id="path2484"
         style="fill:#5f4a00;fill-opacity:1;fill-rule:evenodd;stroke:none;stroke-width:1px;stroke-linecap:butt;stroke-linejoin:miter;stroke-opacity:1" />
      <path
         d="M 55.910833,204.44612 C 56.174375,204.33979 56.39,204.01452 56.39,203.72332 C 56.39,203.07433 58.297973,199.57415 58.74819,199.39722 C 58.927023,199.32694 59.073333,198.95114 59.073333,198.56211 C 59.073333,198.17306 59.299032,197.62681 59.574887,197.34821 C 60.934999,195.97456 65.846714,182.78591 67.302457,176.59857 C 71.743945,157.72093 70.913783,140.73463 64.676731,122.87277 C 63.722457,120.13988 62.997095,117.84846 63.064826,117.78073 C 63.132554,117.713 63.723159,118.26713 64.377275,119.01212 C 65.031395,119.75712 65.701224,120.36768 65.865789,120.36891 C 66.030366,120.37015 67.368985,121.4914 68.840521,122.86058 C 70.312061,124.22976 71.57008,125.35 71.636133,125.35 C 71.987833,125.35 75.94,128.56037 75.94,128.84606 C 75.94,129.03155 76.107455,129.18333 76.312125,129.18333 C 76.835666,129.18333 80.156667,131.565 80.156667,131.94046 C 80.156667,132.11071 80.407577,132.25 80.714244,132.25 C 81.020918,132.25 81.703068,132.68125 82.230151,133.20833 C 82.757223,133.73542 83.370713,134.16667 83.593434,134.16667 C 83.81617,134.16667 85.408778,135.05058 87.13259,136.13092 C 90.54835,138.27161 98.859948,142.51437 101.64166,143.53725 L 103.38497,144.17828 L 108.66086,158.43498 C 111.5626,166.27616 114.17348,173.29542 114.46282,174.03333 C 116.73063,179.81699 117.01647,180.72173 116.61791,180.85459 C 116.38257,180.93304 116.19,181.28951 116.19,181.64675 C 116.19,182.44829 115.45541,183.08469 110.9721,186.16724 C 96.733185,195.95733 81.233201,202.09885 65.716477,204.09873 C 61.394643,204.65574 54.813507,204.88891 55.910833,204.44613 L 55.910833,204.44612 z"
         id="path2913"
         style="opacity:0.09090899;fill:#5f4a00;fill-opacity:1;fill-rule:nonzero;stroke:none;stroke-width:0;stroke-linejoin:round;stroke-miterlimit:4;stroke-dasharray:none;stroke-dashoffset:0;stroke-opacity:1" />
      <path
         d="M 102.00667,134.77962 C 96.714478,132.68777 96.256667,132.47968 96.256667,132.16596 C 96.256667,132.00135 95.971367,131.86667 95.622672,131.86667 C 94.72617,131.86667 86.570953,127.16717 84.181667,125.27373 C 83.970833,125.10665 82.159583,123.73032 80.156667,122.21522 C 73.083963,116.86511 63.013019,106.05233 57.517778,97.908735 L 55.599961,95.066667 L 58.00749,95.021276 C 59.33162,94.996306 60.528344,94.990962 60.666873,95.009397 C 60.805413,95.027835 63.392906,94.875196 66.416873,94.670204 C 77.202202,93.939073 86.986716,91.49137 97.214977,86.965718 C 99.534132,85.939569 101.56829,85.1 101.73532,85.1 C 101.90235,85.1 102.24737,84.919255 102.50201,84.69834 C 103.39323,83.92516 111.36002,79.35 111.81514,79.35 C 112.06786,79.35 112.36345,79.118578 112.47198,78.835728 C 112.58052,78.552878 113.60399,77.701065 114.74636,76.942805 C 115.88873,76.184545 117.04699,75.294721 117.32029,74.96541 C 117.59359,74.636096 118.14109,74.366667 118.53694,74.366667 C 118.93279,74.366667 119.25667,74.107917 119.25667,73.791667 C 119.25667,73.475417 119.43834,73.216667 119.66039,73.216667 C 120.15759,73.216667 132.29,61.165882 132.29,60.672045 C 132.29,60.476756 132.74887,59.898781 133.30972,59.387652 C 134.06623,58.698193 134.26816,58.629039 134.09204,59.119718 C 133.45681,60.889464 132.29807,68.226008 131.89581,73.025 C 131.37876,79.193454 131.33487,93.584505 131.81339,100.05 C 132.39126,107.85778 133.63277,105.74765 119.00897,121.81293 C 111.96046,129.55623 105.98457,135.93123 105.72924,135.97959 C 105.47391,136.02795 103.79875,135.48796 102.00667,134.77961 L 102.00667,134.77962 z"
         id="path2915"
         style="opacity:0.09090899;fill:#5f4a00;fill-opacity:1;fill-rule:nonzero;stroke:none;stroke-width:0;stroke-linejoin:round;stroke-miterlimit:4;stroke-dasharray:none;stroke-dashoffset:0;stroke-opacity:1" />
      <path
         d="M 235.215,178.73256 C 230.79379,174.54424 223.76717,169.29304 218.15345,165.98195 C 213.02353,162.95625 204.06989,158.43195 200.61917,157.12184 C 198.93583,156.48275 198.22333,156.01215 198.22333,155.53945 C 198.22333,155.16943 197.96458,154.86667 197.64833,154.86667 C 197.33208,154.86667 197.07333,154.80265 197.07333,154.7244 C 197.07333,154.64615 194.89979,148.39302 192.24326,140.82856 C 185.75181,122.34433 185.19997,120.69219 185.19464,119.72487 C 185.18394,117.79946 196.18358,110.09115 205.66383,105.38047 C 209.01815,103.71371 212.06987,102.35 212.44534,102.35 C 212.82082,102.35 213.2265,102.19077 213.34679,101.99616 C 213.46704,101.80153 214.08271,101.52871 214.71491,101.38985 C 215.34714,101.25099 216.33702,100.90268 216.9147,100.61581 C 217.49235,100.32895 218.8275,99.8914 219.88167,99.643498 C 220.93583,99.395589 222.10876,99.033833 222.48818,98.839583 C 223.2877,98.430271 226.10301,97.77471 228.315,97.48279 C 229.15833,97.371497 230.05422,97.114303 230.30584,96.911259 C 230.55746,96.708215 232.02371,96.39484 233.56418,96.214877 C 235.10464,96.034909 237.14125,95.710452 238.09,95.493861 C 239.03875,95.27727 241.06697,95.092542 242.59712,95.083361 L 245.37924,95.066667 L 243.07276,99.667778 C 237.54283,110.69933 234.17206,121.77552 232.51553,134.35833 C 231.68193,140.69054 231.70068,152.61215 232.55394,158.76182 C 233.54566,165.90949 235.85819,174.72363 238.15888,180.12509 C 238.55326,181.05097 238.82849,181.85179 238.77045,181.90468 C 238.71246,181.95758 237.1125,180.53012 235.215,178.73257 L 235.215,178.73256 z"
         id="path2919"
         style="opacity:0.09090899;fill:#5f4a00;fill-opacity:1;fill-rule:nonzero;stroke:none;stroke-width:0;stroke-linejoin:round;stroke-miterlimit:4;stroke-dasharray:none;stroke-dashoffset:0;stroke-opacity:1" />
      <path
         d="M 166.79,242.20434 C 166.79,242.08571 167.14596,240.55846 167.58101,238.81044 C 169.86219,229.64496 170.83114,213.27049 169.88254,199.91718 C 169.5559,195.31894 169.54049,193.36927 169.8301,193.27274 C 170.05554,193.19759 170.24,192.71923 170.24,192.20972 C 170.24,191.64182 170.46252,191.28333 170.815,191.28333 C 171.13125,191.28333 171.39,191.05398 171.39,190.77366 C 171.39,190.49334 172.38187,189.16313 173.59417,187.81764 C 176.62764,184.45088 177.0539,183.96561 183.85033,176.14167 C 187.14692,172.34667 190.13385,168.98286 190.4879,168.66653 C 190.84198,168.35022 191.88085,167.18583 192.79652,166.07903 C 194.20795,164.37303 194.65964,164.06667 195.76371,164.06667 C 197.13689,164.06667 200.90667,165.52423 200.90667,166.05517 C 200.90667,166.22649 201.17032,166.36667 201.49259,166.36667 C 203.18696,166.36667 215.36044,173.57856 221.60594,178.28232 C 231.45013,185.69637 239.43884,194.27446 243.97765,202.30447 C 245.26769,204.58677 245.27719,204.63583 244.4707,204.85222 C 244.0184,204.97358 242.26833,205.08072 240.58167,205.09032 C 227.98399,205.16202 211.3612,209.21534 199.77545,215.04055 C 188.78084,220.56854 177.82716,229.20461 170.16628,238.38495 C 168.64863,240.20364 167.26809,241.85554 167.09843,242.05583 C 166.92881,242.25612 166.79,242.32295 166.79,242.20433 L 166.79,242.20434 z"
         id="path2921"
         style="opacity:0.09090899;fill:#5f4a00;fill-opacity:1;fill-rule:nonzero;stroke:none;stroke-width:0;stroke-linejoin:round;stroke-miterlimit:4;stroke-dasharray:none;stroke-dashoffset:0;stroke-opacity:1" />
      <path
         d="M 150.30667,258.55833 C 150.30667,258.24208 150.16133,257.98333 149.9837,257.98333 C 149.80606,257.98333 149.33169,257.34393 148.92953,256.56245 C 147.80056,254.3686 143.99779,248.95774 140.90295,245.14167 C 137.75319,241.25786 126.32692,230 125.53478,230 C 125.2733,230 119.85915,226.07304 119.44686,225.58435 C 119.23522,225.33349 118.67459,225.00525 118.20103,224.85495 C 117.72747,224.70464 117.34,224.42079 117.34,224.22417 C 117.34,224.02754 117.08125,223.86667 116.765,223.86667 C 116.44875,223.86667 116.19,223.69417 116.19,223.48333 C 116.19,223.2725 115.92782,223.1 115.60738,223.1 C 115.28695,223.1 114.38132,222.698 113.59488,222.20667 C 111.27754,220.75889 103.55986,216.96667 102.93078,216.96667 C 102.81806,216.96667 101.83092,216.56231 100.73709,216.06809 C 96.779322,214.27985 85.381653,211.14246 79.416239,210.19919 L 77.665,209.92228 L 79.581667,209.47988 C 83.046732,208.68007 91.783918,205.55342 96.621358,203.38213 C 99.233971,202.20946 101.6007,201.25 101.88078,201.25 C 102.16085,201.25 102.39,201.08912 102.39,200.8925 C 102.39,200.69588 102.74801,200.42137 103.18557,200.28249 C 104.65499,199.81612 114.03877,194.28089 118.61501,191.18109 L 123.14835,188.11038 L 125.70668,188.32785 C 127.11375,188.44745 129.04125,188.7343 129.99,188.96529 C 131.80267,189.40661 155.03337,193.91514 157.015,194.21019 C 157.6475,194.30436 158.77634,194.56274 159.52354,194.78434 C 160.75292,195.14895 160.92546,195.37525 161.33828,197.16446 C 162.34996,201.54928 162.71759,205.60457 162.699,212.175 C 162.65818,226.60655 159.60162,239.79666 152.72783,255.20417 C 151.09938,258.85434 150.30667,259.95251 150.30667,258.55833 z"
         id="path2923"
         style="opacity:0.09090899;fill:#5f4a00;fill-opacity:1;fill-rule:nonzero;stroke:none;stroke-width:0;stroke-linejoin:round;stroke-miterlimit:4;stroke-dasharray:none;stroke-dashoffset:0;stroke-opacity:1" />
      <path
         d="M 143.98167,182.97503 C 133.86167,181.20249 125.52417,179.58673 125.45389,179.38445 C 125.3836,179.18217 125.08173,179.01667 124.78306,179.01667 C 124.47194,179.01667 124.24,178.6401 124.24,178.135 C 124.24,177.65008 124.09207,177.08946 123.91126,176.88917 C 123.73045,176.68887 122.84922,174.2825 121.95295,171.54167 C 121.05669,168.80083 120.17164,166.21333 119.98619,165.79167 C 119.80075,165.37 118.97918,163.04125 118.16051,160.61667 C 117.34183,158.19208 115.70105,153.37643 114.51433,149.91522 C 112.34778,143.5962 112.02983,142.21667 112.74,142.21667 C 112.95083,142.21667 113.12333,141.93174 113.12333,141.58348 C 113.12333,141.23524 113.80365,140.24336 114.63515,139.37932 C 115.46665,138.51528 120.66442,132.80583 126.18573,126.69167 C 131.70706,120.5775 136.77857,115.00104 137.45578,114.29952 L 138.68706,113.02405 L 150.15103,115.30311 C 156.45621,116.55661 164.98845,118.23962 169.11158,119.04314 L 176.60812,120.5041 L 182.86504,138.35622 C 186.3063,148.17488 189.19123,156.38954 189.27595,156.61101 C 189.38171,156.88759 165.26261,185.10645 164.35587,185.76691 C 163.68193,186.25781 159.28106,185.65475 143.98167,182.97503 z"
         id="path2925"
         style="opacity:0.09090899;fill:#5f4a00;fill-opacity:1;fill-rule:nonzero;stroke:none;stroke-width:0;stroke-linejoin:round;stroke-miterlimit:4;stroke-dasharray:none;stroke-dashoffset:0;stroke-opacity:1" />
      <path
         d="M 55.910833,204.44612 C 56.174375,204.33979 56.39,204.01452 56.39,203.72332 C 56.39,203.07433 58.297973,199.57415 58.74819,199.39722 C 58.927023,199.32694 59.073333,198.95114 59.073333,198.56211 C 59.073333,198.17306 59.299032,197.62681 59.574887,197.34821 C 60.934999,195.97456 65.846714,182.78591 67.302457,176.59857 C 71.743945,157.72093 70.913783,140.73463 64.676731,122.87277 C 63.722457,120.13988 62.997095,117.84846 63.064826,117.78073 C 63.132554,117.713 63.723159,118.26713 64.377275,119.01212 C 65.031395,119.75712 65.701224,120.36768 65.865789,120.36891 C 66.030366,120.37015 67.368985,121.4914 68.840521,122.86058 C 70.312061,124.22976 71.57008,125.35 71.636133,125.35 C 71.987833,125.35 75.94,128.56037 75.94,128.84606 C 75.94,129.03155 76.107455,129.18333 76.312125,129.18333 C 76.835666,129.18333 80.156667,131.565 80.156667,131.94046 C 80.156667,132.11071 80.407577,132.25 80.714244,132.25 C 81.020918,132.25 81.703068,132.68125 82.230151,133.20833 C 82.757223,133.73542 83.370713,134.16667 83.593434,134.16667 C 83.81617,134.16667 85.408778,135.05058 87.13259,136.13092 C 90.54835,138.27161 98.859948,142.51437 101.64166,143.53725 L 103.38497,144.17828 L 108.66086,158.43498 C 111.5626,166.27616 114.17348,173.29542 114.46282,174.03333 C 116.73063,179.81699 117.01647,180.72173 116.61791,180.85459 C 116.38257,180.93304 116.19,181.28951 116.19,181.64675 C 116.19,182.44829 115.45541,183.08469 110.9721,186.16724 C 96.733185,195.95733 81.233201,202.09885 65.716477,204.09873 C 61.394643,204.65574 54.813507,204.88891 55.910833,204.44613 L 55.910833,204.44612 z"
         id="path2929"
         style="opacity:0.09090899;fill:#5f4a00;fill-opacity:1;fill-rule:nonzero;stroke:none;stroke-width:0;stroke-linejoin:round;stroke-miterlimit:4;stroke-dasharray:none;stroke-dashoffset:0;stroke-opacity:1" />
      <path
         d="M 102.00667,134.77962 C 96.714478,132.68777 96.256667,132.47968 96.256667,132.16596 C 96.256667,132.00135 95.971367,131.86667 95.622672,131.86667 C 94.72617,131.86667 86.570953,127.16717 84.181667,125.27373 C 83.970833,125.10665 82.159583,123.73032 80.156667,122.21522 C 73.083963,116.86511 63.013019,106.05233 57.517778,97.908735 L 55.599961,95.066667 L 58.00749,95.021276 C 59.33162,94.996306 60.528344,94.990962 60.666873,95.009397 C 60.805413,95.027835 63.392906,94.875196 66.416873,94.670204 C 77.202202,93.939073 86.986716,91.49137 97.214977,86.965718 C 99.534132,85.939569 101.56829,85.1 101.73532,85.1 C 101.90235,85.1 102.24737,84.919255 102.50201,84.69834 C 103.39323,83.92516 111.36002,79.35 111.81514,79.35 C 112.06786,79.35 112.36345,79.118578 112.47198,78.835728 C 112.58052,78.552878 113.60399,77.701065 114.74636,76.942805 C 115.88873,76.184545 117.04699,75.294721 117.32029,74.96541 C 117.59359,74.636096 118.14109,74.366667 118.53694,74.366667 C 118.93279,74.366667 119.25667,74.107917 119.25667,73.791667 C 119.25667,73.475417 119.43834,73.216667 119.66039,73.216667 C 120.15759,73.216667 132.29,61.165882 132.29,60.672045 C 132.29,60.476756 132.74887,59.898781 133.30972,59.387652 C 134.06623,58.698193 134.26816,58.629039 134.09204,59.119718 C 133.45681,60.889464 132.29807,68.226008 131.89581,73.025 C 131.37876,79.193454 131.33487,93.584505 131.81339,100.05 C 132.39126,107.85778 133.63277,105.74765 119.00897,121.81293 C 111.96046,129.55623 105.98457,135.93123 105.72924,135.97959 C 105.47391,136.02795 103.79875,135.48796 102.00667,134.77961 L 102.00667,134.77962 z"
         id="path2931"
         style="opacity:0.09090899;fill:#5f4a00;fill-opacity:1;fill-rule:nonzero;stroke:none;stroke-width:0;stroke-linejoin:round;stroke-miterlimit:4;stroke-dasharray:none;stroke-dashoffset:0;stroke-opacity:1" />
      <path
         d="M 235.215,178.73256 C 230.79379,174.54424 223.76717,169.29304 218.15345,165.98195 C 213.02353,162.95625 204.06989,158.43195 200.61917,157.12184 C 198.93583,156.48275 198.22333,156.01215 198.22333,155.53945 C 198.22333,155.16943 197.96458,154.86667 197.64833,154.86667 C 197.33208,154.86667 197.07333,154.80265 197.07333,154.7244 C 197.07333,154.64615 194.89979,148.39302 192.24326,140.82856 C 185.75181,122.34433 185.19997,120.69219 185.19464,119.72487 C 185.18394,117.79946 196.18358,110.09115 205.66383,105.38047 C 209.01815,103.71371 212.06987,102.35 212.44534,102.35 C 212.82082,102.35 213.2265,102.19077 213.34679,101.99616 C 213.46704,101.80153 214.08271,101.52871 214.71491,101.38985 C 215.34714,101.25099 216.33702,100.90268 216.9147,100.61581 C 217.49235,100.32895 218.8275,99.8914 219.88167,99.643498 C 220.93583,99.395589 222.10876,99.033833 222.48818,98.839583 C 223.2877,98.430271 226.10301,97.77471 228.315,97.48279 C 229.15833,97.371497 230.05422,97.114303 230.30584,96.911259 C 230.55746,96.708215 232.02371,96.39484 233.56418,96.214877 C 235.10464,96.034909 237.14125,95.710452 238.09,95.493861 C 239.03875,95.27727 241.06697,95.092542 242.59712,95.083361 L 245.37924,95.066667 L 243.07276,99.667778 C 237.54283,110.69933 234.17206,121.77552 232.51553,134.35833 C 231.68193,140.69054 231.70068,152.61215 232.55394,158.76182 C 233.54566,165.90949 235.85819,174.72363 238.15888,180.12509 C 238.55326,181.05097 238.82849,181.85179 238.77045,181.90468 C 238.71246,181.95758 237.1125,180.53012 235.215,178.73257 L 235.215,178.73256 z"
         id="path2935"
         style="opacity:0.09090899;fill:#5f4a00;fill-opacity:1;fill-rule:nonzero;stroke:none;stroke-width:0;stroke-linejoin:round;stroke-miterlimit:4;stroke-dasharray:none;stroke-dashoffset:0;stroke-opacity:1" />
      <path
         d="M 166.79,242.20434 C 166.79,242.08571 167.14596,240.55846 167.58101,238.81044 C 169.86219,229.64496 170.83114,213.27049 169.88254,199.91718 C 169.5559,195.31894 169.54049,193.36927 169.8301,193.27274 C 170.05554,193.19759 170.24,192.71923 170.24,192.20972 C 170.24,191.64182 170.46252,191.28333 170.815,191.28333 C 171.13125,191.28333 171.39,191.05398 171.39,190.77366 C 171.39,190.49334 172.38187,189.16313 173.59417,187.81764 C 176.62764,184.45088 177.0539,183.96561 183.85033,176.14167 C 187.14692,172.34667 190.13385,168.98286 190.4879,168.66653 C 190.84198,168.35022 191.88085,167.18583 192.79652,166.07903 C 194.20795,164.37303 194.65964,164.06667 195.76371,164.06667 C 197.13689,164.06667 200.90667,165.52423 200.90667,166.05517 C 200.90667,166.22649 201.17032,166.36667 201.49259,166.36667 C 203.18696,166.36667 215.36044,173.57856 221.60594,178.28232 C 231.45013,185.69637 239.43884,194.27446 243.97765,202.30447 C 245.26769,204.58677 245.27719,204.63583 244.4707,204.85222 C 244.0184,204.97358 242.26833,205.08072 240.58167,205.09032 C 227.98399,205.16202 211.3612,209.21534 199.77545,215.04055 C 188.78084,220.56854 177.82716,229.20461 170.16628,238.38495 C 168.64863,240.20364 167.26809,241.85554 167.09843,242.05583 C 166.92881,242.25612 166.79,242.32295 166.79,242.20433 L 166.79,242.20434 z"
         id="path2937"
         style="opacity:0.09090899;fill:#5f4a00;fill-opacity:1;fill-rule:nonzero;stroke:none;stroke-width:0;stroke-linejoin:round;stroke-miterlimit:4;stroke-dasharray:none;stroke-dashoffset:0;stroke-opacity:1" />
      <path
         d="M 150.30667,258.55833 C 150.30667,258.24208 150.16133,257.98333 149.9837,257.98333 C 149.80606,257.98333 149.33169,257.34393 148.92953,256.56245 C 147.80056,254.3686 143.99779,248.95774 140.90295,245.14167 C 137.75319,241.25786 126.32692,230 125.53478,230 C 125.2733,230 119.85915,226.07304 119.44686,225.58435 C 119.23522,225.33349 118.67459,225.00525 118.20103,224.85495 C 117.72747,224.70464 117.34,224.42079 117.34,224.22417 C 117.34,224.02754 117.08125,223.86667 116.765,223.86667 C 116.44875,223.86667 116.19,223.69417 116.19,223.48333 C 116.19,223.2725 115.92782,223.1 115.60738,223.1 C 115.28695,223.1 114.38132,222.698 113.59488,222.20667 C 111.27754,220.75889 103.55986,216.96667 102.93078,216.96667 C 102.81806,216.96667 101.83092,216.56231 100.73709,216.06809 C 96.779322,214.27985 85.381653,211.14246 79.416239,210.19919 L 77.665,209.92228 L 79.581667,209.47988 C 83.046732,208.68007 91.783918,205.55342 96.621358,203.38213 C 99.233971,202.20946 101.6007,201.25 101.88078,201.25 C 102.16085,201.25 102.39,201.08912 102.39,200.8925 C 102.39,200.69588 102.74801,200.42137 103.18557,200.28249 C 104.65499,199.81612 114.03877,194.28089 118.61501,191.18109 L 123.14835,188.11038 L 125.70668,188.32785 C 127.11375,188.44745 129.04125,188.7343 129.99,188.96529 C 131.80267,189.40661 155.03337,193.91514 157.015,194.21019 C 157.6475,194.30436 158.77634,194.56274 159.52354,194.78434 C 160.75292,195.14895 160.92546,195.37525 161.33828,197.16446 C 162.34996,201.54928 162.71759,205.60457 162.699,212.175 C 162.65818,226.60655 159.60162,239.79666 152.72783,255.20417 C 151.09938,258.85434 150.30667,259.95251 150.30667,258.55833 z"
         id="path2939"
         style="opacity:0.09090899;fill:#5f4a00;fill-opacity:1;fill-rule:nonzero;stroke:none;stroke-width:0;stroke-linejoin:round;stroke-miterlimit:4;stroke-dasharray:none;stroke-dashoffset:0;stroke-opacity:1" />
      <path
         d="M 143.98167,182.97503 C 133.86167,181.20249 125.52417,179.58673 125.45389,179.38445 C 125.3836,179.18217 125.08173,179.01667 124.78306,179.01667 C 124.47194,179.01667 124.24,178.6401 124.24,178.135 C 124.24,177.65008 124.09207,177.08946 123.91126,176.88917 C 123.73045,176.68887 122.84922,174.2825 121.95295,171.54167 C 121.05669,168.80083 120.17164,166.21333 119.98619,165.79167 C 119.80075,165.37 118.97918,163.04125 118.16051,160.61667 C 117.34183,158.19208 115.70105,153.37643 114.51433,149.91522 C 112.34778,143.5962 112.02983,142.21667 112.74,142.21667 C 112.95083,142.21667 113.12333,141.93174 113.12333,141.58348 C 113.12333,141.23524 113.80365,140.24336 114.63515,139.37932 C 115.46665,138.51528 120.66442,132.80583 126.18573,126.69167 C 131.70706,120.5775 136.77857,115.00104 137.45578,114.29952 L 138.68706,113.02405 L 150.15103,115.30311 C 156.45621,116.55661 164.98845,118.23962 169.11158,119.04314 L 176.60812,120.5041 L 182.86504,138.35622 C 186.3063,148.17488 189.19123,156.38954 189.27595,156.61101 C 189.38171,156.88759 165.26261,185.10645 164.35587,185.76691 C 163.68193,186.25781 159.28106,185.65475 143.98167,182.97503 z"
         id="path2941"
         style="opacity:0.09090899;fill:#5f4a00;fill-opacity:1;fill-rule:nonzero;stroke:none;stroke-width:0;stroke-linejoin:round;stroke-miterlimit:4;stroke-dasharray:none;stroke-dashoffset:0;stroke-opacity:1" />
    </g>
  </g>
  <g
     id="layer3"
     style="display:none">
    <image
       xlink:href="ID15c.gif"
       x="0"
       y="0"
       width="300"
       height="299"
       id="image2466" />
  </g>
</svg>
